<svg preserveAspectRatio="none" viewBox="0 0 17 29" fill="none" xmlns="http://www.w3.org/2000/svg">
<path d="M8.35647 0C4.30984 0 1.0287 3.29791 1.0287 7.36522C1.0287 11.4325 4.30879 14.7304 8.35647 14.7304C12.4041 14.7304 15.6842 11.4325 15.6842 7.36522C15.6832 3.29791 12.4031 0 8.35647 0ZM8.35647 10.4102C6.68392 10.4102 5.327 9.04737 5.327 7.36522C5.327 5.68306 6.68287 4.32027 8.35647 4.32027C10.0301 4.32027 11.3859 5.68306 11.3859 7.36522C11.3859 9.04737 10.029 10.4102 8.35647 10.4102Z" fill="#3D3D3D"/>
<path d="M10.9424 20.5907C13.8764 19.9899 15.6339 18.5934 15.7272 18.5186C16.586 17.8261 16.7234 16.5666 16.0355 15.7034C15.3476 14.8402 14.0935 14.7021 13.2346 15.3935C13.2168 15.4083 11.3419 16.8543 8.25683 16.8564C5.17179 16.8543 3.25701 15.4083 3.23918 15.3935C2.38036 14.7021 1.12621 14.8402 0.438312 15.7034C-0.250632 16.5666 -0.112215 17.8272 0.746606 18.5186C0.840982 18.5945 2.67188 20.0268 5.68666 20.6139L1.48379 25.029C0.720391 25.8248 0.742412 27.0927 1.53517 27.8611C1.92211 28.2352 2.42021 28.4218 2.9183 28.4218C3.44052 28.4218 3.96168 28.2163 4.35282 27.8094L8.25788 23.6283L12.5572 27.8358C13.3364 28.6178 14.5979 28.6157 15.3749 27.8337C16.1519 27.0506 16.1509 25.7826 15.3728 25.0016L10.9424 20.5907Z" fill="#3D3D3D"/>
</svg>
