<svg preserveAspectRatio="none" viewBox="0 0 27 16" fill="none" xmlns="http://www.w3.org/2000/svg">
<g style="mix-blend-mode:color">
<path fill-rule="evenodd" clip-rule="evenodd" d="M26.0391 1.09875C26.2368 0.478944 26.0391 0.0281728 25.1636 0.0281728H22.2547C21.5204 0.0281728 21.1815 0.422598 20.9838 0.845196C20.9838 0.845196 19.487 4.45136 17.3971 6.78974C16.7193 7.4659 16.4086 7.69128 16.0415 7.69128C15.8438 7.69128 15.5896 7.46589 15.5896 6.84608V1.07058C15.5896 0.338078 15.3637 0 14.7423 0H10.1671C9.71526 0 9.43284 0.338078 9.43284 0.676156C9.43284 1.38049 10.4778 1.54953 10.5908 3.52165V7.80397C10.5908 8.73369 10.4213 8.90273 10.0542 8.90273C9.06569 8.90273 6.66512 5.26839 5.22477 1.12693C4.94235 0.309905 4.65993 0 3.92564 0H0.988471C0.14121 0 0 0.394424 0 0.817022C0 1.5777 0.988471 5.40925 4.60345 10.4804C7.00402 13.9457 10.4213 15.8052 13.4997 15.8052C15.3637 15.8052 15.5896 15.3826 15.5896 14.6782V12.0581C15.5896 11.2129 15.759 11.0721 16.3521 11.0721C16.7758 11.0721 17.5383 11.2974 19.2611 12.9597C21.238 14.9318 21.5769 15.8333 22.6783 15.8333H25.5873C26.4345 15.8333 26.8299 15.4107 26.604 14.5937C26.3498 13.7767 25.3896 12.5934 24.1469 11.1848C23.4691 10.3959 22.4524 9.52254 22.1417 9.09994C21.7181 8.53648 21.8311 8.31109 22.1417 7.80397C22.1135 7.80397 25.672 2.78915 26.0391 1.09875Z" fill="#3D3D3D"/>
</g>
</svg>
