<svg preserveAspectRatio="none" viewBox="0 0 196 40" fill="none" xmlns="http://www.w3.org/2000/svg">
<path d="M172.572 15.1442L171.516 20.3468H166.485V35.1932H160.746V20.3468H155.715L154.659 15.1442H172.572ZM62.8184 15.1442H80.151L79.0941 20.3468H74.0635V35.1929H68.3562V20.3468H62.8184V15.1442ZM47.0741 24.9147C47.0741 29.1869 49.9066 29.6943 53.0772 29.6943C54.8103 29.6943 56.6704 29.3564 58.1078 28.9757L58.1922 34.3047C56.3321 34.9395 54.0493 35.3202 51.8089 35.3202C46.0173 35.3202 41.1133 32.2746 41.1133 25.0842C41.1133 19.1201 45.0451 14.7635 51.8089 14.7635C54.134 14.7635 56.6282 15.229 58.615 16.2864L56.7129 21.1927C55.4022 20.7275 53.5843 20.389 52.0203 20.389C48.6806 20.389 47.0741 21.9117 47.0741 24.9147V24.9147ZM93.2741 30.2023C90.4419 30.2023 88.4126 28.2142 88.4126 25.1687C88.4126 22.1232 90.4419 20.1353 93.2741 20.1353C96.1064 20.1353 98.1356 22.1232 98.1356 25.1687C98.1356 28.2142 96.1064 30.2023 93.2741 30.2023ZM93.2741 14.7635C87.398 14.7635 82.6632 18.8661 82.6632 25.1687C82.6632 31.4712 87.398 35.5739 93.2741 35.5739C99.1502 35.5739 103.885 31.4712 103.885 25.1687C103.885 18.8661 99.1502 14.7635 93.2741 14.7635ZM110.879 15.1442H126.055V35.1929H120.348V20.3468H115.856L115.391 27.1568C115.01 31.302 114.884 35.1929 109.05 35.1929H106.524L107.233 30.3079C110.45 30.3079 110.132 29.6405 110.879 15.1442V15.1442ZM141.842 30.2023C139.009 30.2023 136.98 28.2142 136.98 25.1687C136.98 22.1232 139.009 20.1353 141.842 20.1353C144.674 20.1353 146.704 22.1232 146.704 25.1687C146.704 28.2142 144.674 30.2023 141.842 30.2023ZM141.842 14.7635C135.966 14.7635 131.23 18.8661 131.23 25.1687C131.23 31.4712 135.966 35.5739 141.842 35.5739C147.718 35.5739 152.453 31.4712 152.453 25.1687C152.453 18.8661 147.718 14.7635 141.842 14.7635V14.7635ZM185.389 30.2023C182.557 30.2023 180.528 28.2142 180.528 25.1687C180.528 22.1232 182.557 20.1353 185.389 20.1353C188.222 20.1353 190.251 22.1232 190.251 25.1687C190.251 28.2142 188.222 30.2023 185.389 30.2023ZM185.389 14.7635C179.513 14.7635 174.778 18.8661 174.778 25.1687C174.778 31.4712 179.513 35.5739 185.389 35.5739C191.265 35.5739 196 31.4712 196 25.1687C196 18.8661 191.265 14.7635 185.389 14.7635" fill="white"/>
<path d="M27.7021 8.41938C27.8431 8.69704 28.1797 8.80799 28.453 8.66466L31.1439 7.25101C31.4175 7.10796 31.5267 6.76609 31.3857 6.48871L28.2343 0.307811C28.0933 0.0304325 27.7567 -0.0805191 27.4834 0.0625351L24.7924 1.47337C24.5189 1.61952 24.4125 1.9611 24.5535 2.23848L27.7021 8.41938Z" fill="white"/>
<path d="M17.1411 16.9136C19.431 16.6853 21.4693 18.3895 21.6944 20.7175C21.9157 23.0458 20.2329 25.1142 17.9427 25.3353C15.6528 25.5597 13.6106 23.8591 13.3934 21.5274C13.1679 19.2031 14.8513 17.1384 17.1411 16.9136ZM18.8327 39.5776C19.1698 39.3301 19.498 39.0865 19.8217 38.8446C19.4986 37.4284 18.7356 35.489 18.2976 34.4462C17.1642 31.7423 14.9047 31.3393 11.4696 29.7784C9.68751 28.9688 5.2755 27.3225 5.2755 27.3225C4.41314 26.9931 4.13056 26.1525 4.44719 25.2888C4.7641 24.4327 5.81729 24.1072 6.67627 24.4054C9.0883 25.2423 11.2943 26.2417 15.397 27.8221C18.0685 28.8488 19.2748 28.1668 21.0761 27.1595C22.3471 26.4507 23.6598 25.9511 23.9767 23.6732C24.0893 22.847 24.9286 16.3014 25.2928 13.4587C25.4073 12.5623 26.2306 11.9327 27.1253 12.0554C27.9919 12.1746 28.6088 12.9583 28.5213 13.829L27.6634 22.116C27.3327 25.3079 27.7099 28.4579 28.5708 31.5178C34.0523 26.1164 35.0875 22.5147 35.0875 18.8871C35.0875 16.175 32.9879 10.0251 26.116 10.0251C21.1515 10.0251 18.8861 12.7592 18.0111 14.277C17.8031 14.6375 17.2844 14.6375 17.0764 14.277C16.2014 12.7592 13.936 10.0251 8.9715 10.0251C2.09962 10.0251 0 16.175 0 18.8871C0 24.0658 2.10806 29.1912 16.2551 39.5776C17.0218 40.1408 18.0657 40.1408 18.8327 39.5776" fill="white"/>
</svg>
