<svg preserveAspectRatio="none" viewBox="0 0 20 20" fill="none" xmlns="http://www.w3.org/2000/svg">
<path fill-rule="evenodd" clip-rule="evenodd" d="M9.9999 19.6C12.546 19.6 14.9878 18.5886 16.7881 16.7882C18.5885 14.9879 19.5999 12.5461 19.5999 10C19.5999 7.45395 18.5885 5.01215 16.7881 3.2118C14.9878 1.41145 12.546 0.400024 9.9999 0.400024C7.45382 0.400024 5.01203 1.41145 3.21168 3.2118C1.41133 5.01215 0.399902 7.45395 0.399902 10C0.399902 12.5461 1.41133 14.9879 3.21168 16.7882C5.01203 18.5886 7.45382 19.6 9.9999 19.6ZM8.4483 6.75162C8.22198 6.53303 7.91886 6.41208 7.60422 6.41481C7.28958 6.41755 6.98861 6.54375 6.76612 6.76624C6.54363 6.98873 6.41743 7.28971 6.41469 7.60434C6.41196 7.91898 6.53291 8.2221 6.7515 8.44842L8.3031 10L6.7515 11.5516C6.63689 11.6623 6.54547 11.7947 6.48258 11.9411C6.41969 12.0875 6.38659 12.245 6.3852 12.4043C6.38382 12.5637 6.41418 12.7217 6.47452 12.8692C6.53485 13.0166 6.62396 13.1506 6.73663 13.2633C6.8493 13.376 6.98328 13.4651 7.13076 13.5254C7.27823 13.5857 7.43625 13.6161 7.59558 13.6147C7.75492 13.6133 7.91238 13.5802 8.05879 13.5173C8.20519 13.4545 8.33761 13.363 8.4483 13.2484L9.9999 11.6968L11.5515 13.2484C11.7778 13.467 12.0809 13.588 12.3956 13.5852C12.7102 13.5825 13.0112 13.4563 13.2337 13.2338C13.4562 13.0113 13.5824 12.7103 13.5851 12.3957C13.5878 12.0811 13.4669 11.7779 13.2483 11.5516L11.6967 10L13.2483 8.44842C13.4669 8.2221 13.5878 7.91898 13.5851 7.60434C13.5824 7.28971 13.4562 6.98873 13.2337 6.76624C13.0112 6.54375 12.7102 6.41755 12.3956 6.41481C12.0809 6.41208 11.7778 6.53303 11.5515 6.75162L9.9999 8.30322L8.4483 6.75162Z" fill="#804DB4"/>
</svg>
