<svg preserveAspectRatio="none" viewBox="0 0 20 20" fill="none" xmlns="http://www.w3.org/2000/svg">
<path fill-rule="evenodd" clip-rule="evenodd" d="M19.5999 10C19.5999 12.5461 18.5885 14.9879 16.7881 16.7882C14.9878 18.5886 12.546 19.6 9.9999 19.6C7.45382 19.6 5.01203 18.5886 3.21168 16.7882C1.41133 14.9879 0.399902 12.5461 0.399902 10C0.399902 7.45395 1.41133 5.01215 3.21168 3.2118C5.01203 1.41145 7.45382 0.400024 9.9999 0.400024C12.546 0.400024 14.9878 1.41145 16.7881 3.2118C18.5885 5.01215 19.5999 7.45395 19.5999 10ZM9.9999 6.40002C9.78906 6.39982 9.58189 6.45517 9.39924 6.5605C9.21659 6.66583 9.06492 6.81743 8.9595 7.00002C8.88338 7.14148 8.77964 7.2662 8.65442 7.36682C8.52919 7.46743 8.38505 7.54188 8.23052 7.58575C8.076 7.62961 7.91424 7.64201 7.75483 7.62221C7.59542 7.6024 7.44161 7.55079 7.30252 7.47044C7.16343 7.39008 7.04189 7.28262 6.9451 7.15443C6.84831 7.02623 6.77824 6.8799 6.73906 6.72412C6.69987 6.56834 6.69235 6.40628 6.71696 6.24755C6.74156 6.08881 6.79779 5.93663 6.8823 5.80002C7.27856 5.11376 7.89019 4.57742 8.62233 4.27418C9.35447 3.97094 10.1662 3.91775 10.9317 4.12285C11.6971 4.32796 12.3735 4.7799 12.8559 5.40858C13.3384 6.03727 13.5999 6.80757 13.5999 7.60002C13.6001 8.34476 13.3694 9.07126 12.9396 9.67945C12.5098 10.2876 11.902 10.7476 11.1999 10.996V11.2C11.1999 11.5183 11.0735 11.8235 10.8484 12.0486C10.6234 12.2736 10.3182 12.4 9.9999 12.4C9.68164 12.4 9.37642 12.2736 9.15137 12.0486C8.92633 11.8235 8.7999 11.5183 8.7999 11.2V10C8.7999 9.68176 8.92633 9.37654 9.15137 9.1515C9.37642 8.92645 9.68164 8.80002 9.9999 8.80002C10.3182 8.80002 10.6234 8.6736 10.8484 8.44855C11.0735 8.22351 11.1999 7.91828 11.1999 7.60002C11.1999 7.28176 11.0735 6.97654 10.8484 6.7515C10.6234 6.52645 10.3182 6.40002 9.9999 6.40002ZM9.9999 16C10.3182 16 10.6234 15.8736 10.8484 15.6486C11.0735 15.4235 11.1999 15.1183 11.1999 14.8C11.1999 14.4818 11.0735 14.1765 10.8484 13.9515C10.6234 13.7265 10.3182 13.6 9.9999 13.6C9.68164 13.6 9.37642 13.7265 9.15137 13.9515C8.92633 14.1765 8.7999 14.4818 8.7999 14.8C8.7999 15.1183 8.92633 15.4235 9.15137 15.6486C9.37642 15.8736 9.68164 16 9.9999 16Z" fill="#804DB4"/>
</svg>
